<?xml version="1.0" encoding="utf-8"?>
<!-- Generator: Adobe Illustrator 16.0.0, SVG Export Plug-In . SVG Version: 6.00 Build 0)  -->
<!DOCTYPE svg PUBLIC "-//W3C//DTD SVG 1.1//EN" "http://www.w3.org/Graphics/SVG/1.1/DTD/svg11.dtd">
<svg version="1.1" id="Capa_1" xmlns="http://www.w3.org/2000/svg" xmlns:xlink="http://www.w3.org/1999/xlink" x="0px" y="0px"
	 width="148.855px" height="148px" viewBox="382.5 420.5 148.855 148" enable-background="new 382.5 420.5 148.855 148"
	 xml:space="preserve">
<g>
	<path d="M512.223,491.718c-2.165-5.633-4.536-11.854-8.343-16.619c-2.879-3.602-8.275-6.721-13.053-5.991
		c-0.062,0.009-0.461,0.096-1.154,0.251c0.172,1.195,0.261,2.407,0.261,3.632c0,3.401-0.668,6.704-1.984,9.817
		c-1.271,3.004-3.088,5.699-5.4,8.012c-2.313,2.313-5.009,4.131-8.013,5.401c-3.113,1.316-6.416,1.983-9.816,1.983
		s-6.703-0.667-9.817-1.983c-3.003-1.271-5.699-3.088-8.012-5.401c-2.313-2.313-4.13-5.008-5.4-8.012
		c-0.313-0.738-0.587-1.488-0.826-2.246c-19.813,4.545-38.185,8.766-39.257,9.016c-0.945,0.221-2.096,0.352-2.945,0.804
		c-0.716,0.38-1.229,0.989-1.229,2.071v49.458c0,1.949,2.061,3.744,4.6,4.009l18.385,1.912l82.695,8.607
		c7.604,0.792,13.778-3.309,13.778-9.16c0-3.695-2.459-7.193-6.186-9.481c3.727-1.506,6.186-4.498,6.186-8.188
		c0-3.688-2.459-7.187-6.179-9.467C521.505,515.665,515.295,499.712,512.223,491.718z M488.012,546.847l-81.063-8.44v-8.103
		l81.063,8.435c7.604,0.793,13.777,3.246,13.777,5.483C501.789,546.461,495.616,547.64,488.012,546.847z M488.012,530.698
		l-81.063-8.441v-8.108l81.063,8.447c7.604,0.793,13.777,3.245,13.777,5.483C501.789,530.316,495.616,531.491,488.012,530.698z
		 M488.012,514.548l-81.063-8.435v-8.108l81.063,8.435c7.604,0.793,13.777,3.252,13.777,5.489
		C501.789,514.173,495.616,515.341,488.012,514.548z"/>
	<path d="M447.279,472.991c0,2.043,0.353,4.002,0.998,5.825c2.397,6.768,8.854,11.616,16.442,11.616
		c9.634,0,17.441-7.808,17.441-17.44c0-0.644-0.036-1.279-0.104-1.906c-0.95-8.736-8.35-15.535-17.338-15.535
		c-0.917,0-1.818,0.071-2.698,0.208c-0.597-1.221-1.258-2.415-1.971-3.578c-0.719-1.173-1.489-2.316-2.296-3.427
		c-0.987-1.362-2.029-2.676-3.097-3.94c-1.986-2.349-4.142-4.573-6.512-6.54c-2.075-1.722-4.281-3.38-6.76-4.477
		c-1.402-0.621-3.01-0.423-3.849,1.009c-0.709,1.21-0.394,3.228,1.009,3.849c1.164,0.515,2.269,1.157,3.322,1.87
		c0.304,0.206,0.606,0.416,0.902,0.632c0.109,0.079,0.496,0.375,0.598,0.45c0.45,0.356,0.894,0.718,1.329,1.093
		c1.145,0.99,2.246,2.03,3.297,3.119c1.107,1.146,2.171,2.334,3.18,3.568c0.287,0.351,0.571,0.703,0.849,1.061
		c0.001,0.001,0.001,0.001,0.002,0.002c0.01,0.014,0.021,0.028,0.033,0.044c0.117,0.155,0.235,0.31,0.351,0.466
		c0.004,0.006,0.008,0.012,0.013,0.018c0.458,0.617,0.906,1.24,1.338,1.876c0.302,0.444,0.597,0.893,0.886,1.345
		c0.563,0.883,1.102,1.782,1.603,2.702c0.118,0.218,0.234,0.436,0.35,0.655C451.057,460.476,447.279,466.292,447.279,472.991z"/>
</g>
</svg>
